<svg id="Layer_2" data-name="Layer 2" xmlns="http://www.w3.org/2000/svg" viewBox="0 0 1112 691"><defs><style>.cls-1{opacity:0.1;}.cls-2,.cls-5{opacity:0.2;}.cls-3,.cls-4,.cls-5{fill:#34dcd6;}.cls-4{opacity:0.5;}</style></defs><title>Artboard 1</title><g class="cls-1"><g class="cls-2"><path class="cls-3" d="M87,126l-3,1.71v45.55a2,2,0,0,0,4,0v-49A2,2,0,0,1,87,126Z"/><path class="cls-3" d="M1,126a2,2,0,0,1-1-1.74v49a2,2,0,0,0,4,0V127.7Z"/></g><path class="cls-4" d="M86,73.26a2,2,0,0,0-2,2v47.84L46,144.81V99.21a2,2,0,0,0-4,0v45.59L4,123.09V75.26a2,2,0,0,0-4,0v49A2,2,0,0,0,1,126l42,24a2,2,0,0,0,2,0l42-24a2,2,0,0,0,1-1.74v-49A2,2,0,0,0,86,73.26Z"/><path class="cls-3" d="M87,24.48,45,.48a2,2,0,0,0-2,0l-42,24a2,2,0,0,0-1,1.74v49A2,2,0,0,0,1,77l42,24a2,2,0,0,0,2,0L87,77a2,2,0,0,0,1-1.74v-49A2,2,0,0,0,87,24.48Zm-43-20,38,21.7L65.25,35.77l-38-21.7Zm0,43.39L6,26.21l17.22-9.84,38,21.7ZM4,29.66,42,51.37V95.77L4,74.05ZM46,95.77V51.37L84,29.66V74.05Z"/><g class="cls-2"><path class="cls-3" d="M87,271.83l-3,1.71v45.55a2,2,0,0,0,4,0v-49A2,2,0,0,1,87,271.83Z"/><path class="cls-3" d="M1,271.83a2,2,0,0,1-1-1.74v49a2,2,0,0,0,4,0V273.54Z"/></g><path class="cls-4" d="M86,219.09a2,2,0,0,0-2,2v47.84L46,290.65V245.05a2,2,0,0,0-4,0v45.59L4,268.93V221.09a2,2,0,0,0-4,0v49a2,2,0,0,0,1,1.74l42,24a2,2,0,0,0,2,0l42-24a2,2,0,0,0,1-1.74v-49A2,2,0,0,0,86,219.09Z"/><path class="cls-3" d="M87,170.32l-42-24a2,2,0,0,0-2,0l-42,24a2,2,0,0,0-1,1.74v49a2,2,0,0,0,1,1.74l42,24a2,2,0,0,0,2,0l42-24a2,2,0,0,0,1-1.74v-49A2,2,0,0,0,87,170.32Zm-43-20,38,21.7-16.72,9.55-38-21.7Zm0,43.39L6,172.05l17.22-9.84,38,21.7ZM4,175.5l38,21.71v44.39L4,219.89Zm42,66.11V197.21L84,175.5v44.39Z"/><g class="cls-2"><path class="cls-3" d="M87,418.16l-3,1.71v45.55a2,2,0,0,0,4,0v-49A2,2,0,0,1,87,418.16Z"/><path class="cls-3" d="M1,418.16a2,2,0,0,1-1-1.74v49a2,2,0,0,0,4,0V419.87Z"/></g><path class="cls-4" d="M86,365.43a2,2,0,0,0-2,2v47.84L46,437V391.39a2,2,0,0,0-4,0V437L4,415.27V367.43a2,2,0,0,0-4,0v49a2,2,0,0,0,1,1.74l42,24a2,2,0,0,0,2,0l42-24a2,2,0,0,0,1-1.74v-49A2,2,0,0,0,86,365.43Z"/><path class="cls-3" d="M87,316.65l-42-24a2,2,0,0,0-2,0l-42,24a2,2,0,0,0-1,1.74v49a2,2,0,0,0,1,1.74l42,24a2,2,0,0,0,2,0l42-24a2,2,0,0,0,1-1.74v-49A2,2,0,0,0,87,316.65Zm-43-20,38,21.7-16.72,9.55-38-21.7Zm0,43.39L6,318.39l17.22-9.84,38,21.7ZM4,321.83l38,21.71v44.39L4,366.23Zm42,66.11V343.55l38-21.71v44.39Z"/><path class="cls-4" d="M86,511.43a2,2,0,0,0-2,2v47.84L46,583V537.39a2,2,0,0,0-4,0V583L4,561.27V513.43a2,2,0,0,0-4,0v49a2,2,0,0,0,1,1.74l42,24a2,2,0,0,0,2,0l42-24a2,2,0,0,0,1-1.74v-49A2,2,0,0,0,86,511.43Z"/><path class="cls-3" d="M87,462.65l-42-24a2,2,0,0,0-2,0l-42,24a2,2,0,0,0-1,1.74v49a2,2,0,0,0,1,1.74l42,24a2,2,0,0,0,2,0l42-24a2,2,0,0,0,1-1.74v-49A2,2,0,0,0,87,462.65Zm-43-20,38,21.7-16.72,9.55-38-21.7Zm0,43.39L6,464.39l17.22-9.84,38,21.7ZM4,467.83l38,21.71v44.39L4,512.23Zm42,66.11V489.55l38-21.71v44.39Z"/><path class="cls-5" d="M87,564.16l-3,1.71v44.34L46,631.93V587.59l-1,.58a2,2,0,0,1-2,0l-1-.58v44.34L4,610.22V565.87l-3-1.71a2,2,0,0,1-1-1.74v49a2,2,0,0,0,1,1.74l42,24a2,2,0,0,0,2,0l42-24a2,2,0,0,0,1-1.74v-49A2,2,0,0,1,87,564.16Z"/><g class="cls-2"><path class="cls-3" d="M215,179.4l-3,1.71v45.55a2,2,0,0,0,4,0v-49A2,2,0,0,1,215,179.4Z"/><path class="cls-3" d="M129,179.4a2,2,0,0,1-1-1.74v49a2,2,0,0,0,4,0V181.11Z"/></g><path class="cls-4" d="M214,126.66a2,2,0,0,0-2,2V176.5l-38,21.71V152.62a2,2,0,1,0-4,0v45.59L132,176.5V128.66a2,2,0,1,0-4,0v49a2,2,0,0,0,1,1.74l42,24a2,2,0,0,0,2,0l42-24a2,2,0,0,0,1-1.74v-49A2,2,0,0,0,214,126.66Z"/><path class="cls-3" d="M215,77.89l-42-24a2,2,0,0,0-2,0l-42,24a2,2,0,0,0-1,1.74v49a2,2,0,0,0,1,1.74l42,24a2,2,0,0,0,2,0l42-24a2,2,0,0,0,1-1.74v-49A2,2,0,0,0,215,77.89Zm-43-20,38,21.7-16.72,9.55-38-21.7Zm0,43.39-38-21.7,17.22-9.84,38,21.7ZM132,83.07l38,21.71v44.39l-38-21.71Zm42,66.11V104.78l38-21.71v44.39Z"/><g class="cls-2"><path class="cls-3" d="M215,325.24l-3,1.71V372.5a2,2,0,1,0,4,0v-49A2,2,0,0,1,215,325.24Z"/><path class="cls-3" d="M129,325.24a2,2,0,0,1-1-1.74v49a2,2,0,0,0,4,0V326.95Z"/></g><path class="cls-4" d="M214,272.5a2,2,0,0,0-2,2v47.84l-38,21.71V298.46a2,2,0,0,0-4,0v45.59l-38-21.71V274.5a2,2,0,0,0-4,0v49a2,2,0,0,0,1,1.74l42,24a2,2,0,0,0,2,0l42-24a2,2,0,0,0,1-1.74v-49A2,2,0,0,0,214,272.5Z"/><path class="cls-3" d="M215,223.72l-42-24a2,2,0,0,0-2,0l-42,24a2,2,0,0,0-1,1.74v49a2,2,0,0,0,1,1.74l42,24a2,2,0,0,0,2,0l42-24a2,2,0,0,0,1-1.74v-49A2,2,0,0,0,215,223.72Zm-43-20,38,21.7L193.25,235l-38-21.7Zm0,43.39-38-21.7,17.22-9.84,38,21.7Zm-40-18.25,38,21.71V295L132,273.3ZM174,295V250.62l38-21.71V273.3Z"/><g class="cls-2"><path class="cls-3" d="M215,471.57l-3,1.71v45.55a2,2,0,0,0,4,0v-49A2,2,0,0,1,215,471.57Z"/><path class="cls-3" d="M129,471.57a2,2,0,0,1-1-1.74v49a2,2,0,0,0,4,0V473.28Z"/></g><path class="cls-4" d="M214,418.84a2,2,0,0,0-2,2v47.84l-38,21.71V444.79a2,2,0,0,0-4,0v45.59l-38-21.71V420.84a2,2,0,1,0-4,0v49a2,2,0,0,0,1,1.74l42,24a2,2,0,0,0,2,0l42-24a2,2,0,0,0,1-1.74v-49A2,2,0,0,0,214,418.84Z"/><path class="cls-3" d="M215,370.06l-42-24a2,2,0,0,0-2,0l-42,24a2,2,0,0,0-1,1.74v49a2,2,0,0,0,1,1.74l42,24a2,2,0,0,0,2,0l42-24a2,2,0,0,0,1-1.74v-49A2,2,0,0,0,215,370.06Zm-43-20,38,21.7-16.72,9.55-38-21.7Zm0,43.39-38-21.7L151.25,362l38,21.7Zm-40-18.25L170,397v44.39l-38-21.71Zm42,66.11V397l38-21.71v44.39Z"/><path class="cls-4" d="M214,564.84a2,2,0,0,0-2,2v47.84l-38,21.71V590.79a2,2,0,0,0-4,0v45.59l-38-21.71V566.84a2,2,0,0,0-4,0v49a2,2,0,0,0,1,1.74l42,24a2,2,0,0,0,2,0l42-24a2,2,0,0,0,1-1.74v-49A2,2,0,0,0,214,564.84Z"/><path class="cls-3" d="M215,516.06l-42-24a2,2,0,0,0-2,0l-42,24a2,2,0,0,0-1,1.74v49a2,2,0,0,0,1,1.74l42,24a2,2,0,0,0,2,0l42-24a2,2,0,0,0,1-1.74v-49A2,2,0,0,0,215,516.06Zm-43-20,38,21.7-16.72,9.55-38-21.7Zm0,43.39-38-21.7L151.25,508l38,21.7Zm-40-18.25L170,543v44.39l-38-21.71Zm42,66.11V543l38-21.71v44.39Z"/><path class="cls-5" d="M215,617.57l-3,1.71v44.34l-38,21.71V641l-1,.58a2,2,0,0,1-2,0l-1-.58v44.34l-38-21.71V619.28l-3-1.71a2,2,0,0,1-1-1.74v49a2,2,0,0,0,1,1.74l42,24a2,2,0,0,0,2,0l42-24a2,2,0,0,0,1-1.74v-49A2,2,0,0,1,215,617.57Z"/><g class="cls-2"><path class="cls-3" d="M342.74,126l-3,1.71v45.55a2,2,0,0,0,4,0v-49A2,2,0,0,1,342.74,126Z"/><path class="cls-3" d="M256.76,126a2,2,0,0,1-1-1.74v49a2,2,0,0,0,4,0V127.7Z"/></g><path class="cls-4" d="M341.75,73.26a2,2,0,0,0-2,2v47.84l-38,21.71V99.21a2,2,0,1,0-4,0v45.59l-38-21.71V75.26a2,2,0,1,0-4,0v49a2,2,0,0,0,1,1.74l42,24a2,2,0,0,0,2,0l42-24a2,2,0,0,0,1-1.74v-49A2,2,0,0,0,341.75,73.26Z"/><path class="cls-3" d="M342.74,24.48l-42-24a2,2,0,0,0-2,0l-42,24a2,2,0,0,0-1,1.74v49a2,2,0,0,0,1,1.74l42,24a2,2,0,0,0,2,0l42-24a2,2,0,0,0,1-1.74v-49A2,2,0,0,0,342.74,24.48Zm-43-20,38,21.7L321,35.77l-38-21.7Zm0,43.39-38-21.7L279,16.37l38,21.7Zm-40-18.25,38,21.71V95.77l-38-21.71Zm42,66.11V51.37l38-21.71V74.05Z"/><g class="cls-2"><path class="cls-3" d="M342.74,271.83l-3,1.71v45.55a2,2,0,0,0,4,0v-49A2,2,0,0,1,342.74,271.83Z"/><path class="cls-3" d="M256.76,271.83a2,2,0,0,1-1-1.74v49a2,2,0,0,0,4,0V273.54Z"/></g><path class="cls-4" d="M341.75,219.09a2,2,0,0,0-2,2v47.84l-38,21.71V245.05a2,2,0,0,0-4,0v45.59l-38-21.71V221.09a2,2,0,0,0-4,0v49a2,2,0,0,0,1,1.74l42,24a2,2,0,0,0,2,0l42-24a2,2,0,0,0,1-1.74v-49A2,2,0,0,0,341.75,219.09Z"/><path class="cls-3" d="M342.74,170.32l-42-24a2,2,0,0,0-2,0l-42,24a2,2,0,0,0-1,1.74v49a2,2,0,0,0,1,1.74l42,24a2,2,0,0,0,2,0l42-24a2,2,0,0,0,1-1.74v-49A2,2,0,0,0,342.74,170.32Zm-43-20,38,21.7L321,181.61l-38-21.7Zm0,43.39-38-21.7L279,162.21l38,21.7Zm-40-18.25,38,21.71v44.39l-38-21.71Zm42,66.11V197.21l38-21.71v44.39Z"/><g class="cls-2"><path class="cls-3" d="M342.74,418.16l-3,1.71v45.55a2,2,0,0,0,4,0v-49A2,2,0,0,1,342.74,418.16Z"/><path class="cls-3" d="M256.76,418.16a2,2,0,0,1-1-1.74v49a2,2,0,0,0,4,0V419.87Z"/></g><path class="cls-4" d="M341.75,365.43a2,2,0,0,0-2,2v47.84l-38,21.71V391.39a2,2,0,1,0-4,0V437l-38-21.71V367.43a2,2,0,0,0-4,0v49a2,2,0,0,0,1,1.74l42,24a2,2,0,0,0,2,0l42-24a2,2,0,0,0,1-1.74v-49A2,2,0,0,0,341.75,365.43Z"/><path class="cls-3" d="M342.74,316.65l-42-24a2,2,0,0,0-2,0l-42,24a2,2,0,0,0-1,1.74v49a2,2,0,0,0,1,1.74l42,24a2,2,0,0,0,2,0l42-24a2,2,0,0,0,1-1.74v-49A2,2,0,0,0,342.74,316.65Zm-43-20,38,21.7L321,327.94l-38-21.7Zm0,43.39-38-21.7L279,308.55l38,21.7Zm-40-18.25,38,21.71v44.39l-38-21.71Zm42,66.11V343.55l38-21.71v44.39Z"/><path class="cls-4" d="M341.75,511.43a2,2,0,0,0-2,2v47.84l-38,21.71V537.39a2,2,0,0,0-4,0V583l-38-21.71V513.43a2,2,0,0,0-4,0v49a2,2,0,0,0,1,1.74l42,24a2,2,0,0,0,2,0l42-24a2,2,0,0,0,1-1.74v-49A2,2,0,0,0,341.75,511.43Z"/><path class="cls-3" d="M342.74,462.65l-42-24a2,2,0,0,0-2,0l-42,24a2,2,0,0,0-1,1.74v49a2,2,0,0,0,1,1.74l42,24a2,2,0,0,0,2,0l42-24a2,2,0,0,0,1-1.74v-49A2,2,0,0,0,342.74,462.65Zm-43-20,38,21.7L321,473.94l-38-21.7Zm0,43.39-38-21.7L279,454.55l38,21.7Zm-40-18.25,38,21.71v44.39l-38-21.71Zm42,66.11V489.55l38-21.71v44.39Z"/><path class="cls-5" d="M342.74,564.16l-3,1.71v44.34l-38,21.71V587.59l-1,.58a2,2,0,0,1-2,0l-1-.58v44.34l-38-21.71V565.87l-3-1.71a2,2,0,0,1-1-1.74v49a2,2,0,0,0,1,1.74l42,24a2,2,0,0,0,2,0l42-24a2,2,0,0,0,1-1.74v-49A2,2,0,0,1,342.74,564.16Z"/><g class="cls-2"><path class="cls-3" d="M470.74,179.4l-3,1.71v45.55a2,2,0,1,0,4,0v-49A2,2,0,0,1,470.74,179.4Z"/><path class="cls-3" d="M384.76,179.4a2,2,0,0,1-1-1.74v49a2,2,0,1,0,4,0V181.11Z"/></g><path class="cls-4" d="M469.75,126.66a2,2,0,0,0-2,2V176.5l-38,21.71V152.62a2,2,0,0,0-4,0v45.59l-38-21.71V128.66a2,2,0,0,0-4,0v49a2,2,0,0,0,1,1.74l42,24a2,2,0,0,0,2,0l42-24a2,2,0,0,0,1-1.74v-49A2,2,0,0,0,469.75,126.66Z"/><path class="cls-3" d="M470.74,77.89l-42-24a2,2,0,0,0-2,0l-42,24a2,2,0,0,0-1,1.74v49a2,2,0,0,0,1,1.74l42,24a2,2,0,0,0,2,0l42-24a2,2,0,0,0,1-1.74v-49A2,2,0,0,0,470.74,77.89Zm-43-20,38,21.7L449,89.18l-38-21.7Zm0,43.39-38-21.7L407,69.78l38,21.7Zm-40-18.25,38,21.71v44.39l-38-21.71Zm42,66.11V104.78l38-21.71v44.39Z"/><g class="cls-2"><path class="cls-3" d="M470.74,325.24l-3,1.71V372.5a2,2,0,0,0,4,0v-49A2,2,0,0,1,470.74,325.24Z"/><path class="cls-3" d="M384.76,325.24a2,2,0,0,1-1-1.74v49a2,2,0,0,0,4,0V326.95Z"/></g><path class="cls-4" d="M469.75,272.5a2,2,0,0,0-2,2v47.84l-38,21.71V298.46a2,2,0,0,0-4,0v45.59l-38-21.71V274.5a2,2,0,0,0-4,0v49a2,2,0,0,0,1,1.74l42,24a2,2,0,0,0,2,0l42-24a2,2,0,0,0,1-1.74v-49A2,2,0,0,0,469.75,272.5Z"/><path class="cls-3" d="M470.74,223.72l-42-24a2,2,0,0,0-2,0l-42,24a2,2,0,0,0-1,1.74v49a2,2,0,0,0,1,1.74l42,24a2,2,0,0,0,2,0l42-24a2,2,0,0,0,1-1.74v-49A2,2,0,0,0,470.74,223.72Zm-43-20,38,21.7L449,235l-38-21.7Zm0,43.39-38-21.7L407,215.62l38,21.7Zm-40-18.25,38,21.71V295l-38-21.71Zm42,66.11V250.62l38-21.71V273.3Z"/><g class="cls-2"><path class="cls-3" d="M470.74,471.57l-3,1.71v45.55a2,2,0,0,0,4,0v-49A2,2,0,0,1,470.74,471.57Z"/><path class="cls-3" d="M384.76,471.57a2,2,0,0,1-1-1.74v49a2,2,0,0,0,4,0V473.28Z"/></g><path class="cls-4" d="M469.75,418.84a2,2,0,0,0-2,2v47.84l-38,21.71V444.79a2,2,0,0,0-4,0v45.59l-38-21.71V420.84a2,2,0,0,0-4,0v49a2,2,0,0,0,1,1.74l42,24a2,2,0,0,0,2,0l42-24a2,2,0,0,0,1-1.74v-49A2,2,0,0,0,469.75,418.84Z"/><path class="cls-3" d="M470.74,370.06l-42-24a2,2,0,0,0-2,0l-42,24a2,2,0,0,0-1,1.74v49a2,2,0,0,0,1,1.74l42,24a2,2,0,0,0,2,0l42-24a2,2,0,0,0,1-1.74v-49A2,2,0,0,0,470.74,370.06Zm-43-20,38,21.7L449,381.35l-38-21.7Zm0,43.39-38-21.7L407,362l38,21.7Zm-40-18.25,38,21.71v44.39l-38-21.71Zm42,66.11V397l38-21.71v44.39Z"/><path class="cls-4" d="M469.75,564.84a2,2,0,0,0-2,2v47.84l-38,21.71V590.79a2,2,0,0,0-4,0v45.59l-38-21.71V566.84a2,2,0,0,0-4,0v49a2,2,0,0,0,1,1.74l42,24a2,2,0,0,0,2,0l42-24a2,2,0,0,0,1-1.74v-49A2,2,0,0,0,469.75,564.84Z"/><path class="cls-3" d="M470.74,516.06l-42-24a2,2,0,0,0-2,0l-42,24a2,2,0,0,0-1,1.74v49a2,2,0,0,0,1,1.74l42,24a2,2,0,0,0,2,0l42-24a2,2,0,0,0,1-1.74v-49A2,2,0,0,0,470.74,516.06Zm-43-20,38,21.7L449,527.35l-38-21.7Zm0,43.39-38-21.7L407,508l38,21.7Zm-40-18.25,38,21.71v44.39l-38-21.71Zm42,66.11V543l38-21.71v44.39Z"/><path class="cls-5" d="M470.74,617.57l-3,1.71v44.34l-38,21.71V641l-1,.58a2,2,0,0,1-2,0l-1-.58v44.34l-38-21.71V619.28l-3-1.71a2,2,0,0,1-1-1.74v49a2,2,0,0,0,1,1.74l42,24a2,2,0,0,0,2,0l42-24a2,2,0,0,0,1-1.74v-49A2,2,0,0,1,470.74,617.57Z"/><g class="cls-2"><path class="cls-3" d="M599,126l-3,1.71v45.55a2,2,0,1,0,4,0v-49A2,2,0,0,1,599,126Z"/><path class="cls-3" d="M513,126a2,2,0,0,1-1-1.74v49a2,2,0,1,0,4,0V127.7Z"/></g><path class="cls-4" d="M598,73.26a2,2,0,0,0-2,2v47.84l-38,21.71V99.21a2,2,0,1,0-4,0v45.59l-38-21.71V75.26a2,2,0,0,0-4,0v49a2,2,0,0,0,1,1.74l42,24a2,2,0,0,0,2,0l42-24a2,2,0,0,0,1-1.74v-49A2,2,0,0,0,598,73.26Z"/><path class="cls-3" d="M599,24.48l-42-24a2,2,0,0,0-2,0l-42,24a2,2,0,0,0-1,1.74v49A2,2,0,0,0,513,77l42,24a2,2,0,0,0,2,0l42-24a2,2,0,0,0,1-1.74v-49A2,2,0,0,0,599,24.48Zm-43-20,38,21.7-16.72,9.55-38-21.7Zm0,43.39-38-21.7,17.22-9.84,38,21.7ZM516,29.66l38,21.71V95.77L516,74.05Zm42,66.11V51.37l38-21.71V74.05Z"/><g class="cls-2"><path class="cls-3" d="M599,271.83l-3,1.71v45.55a2,2,0,1,0,4,0v-49A2,2,0,0,1,599,271.83Z"/><path class="cls-3" d="M513,271.83a2,2,0,0,1-1-1.74v49a2,2,0,1,0,4,0V273.54Z"/></g><path class="cls-4" d="M598,219.09a2,2,0,0,0-2,2v47.84l-38,21.71V245.05a2,2,0,1,0-4,0v45.59l-38-21.71V221.09a2,2,0,0,0-4,0v49a2,2,0,0,0,1,1.74l42,24a2,2,0,0,0,2,0l42-24a2,2,0,0,0,1-1.74v-49A2,2,0,0,0,598,219.09Z"/><path class="cls-3" d="M599,170.32l-42-24a2,2,0,0,0-2,0l-42,24a2,2,0,0,0-1,1.74v49a2,2,0,0,0,1,1.74l42,24a2,2,0,0,0,2,0l42-24a2,2,0,0,0,1-1.74v-49A2,2,0,0,0,599,170.32Zm-43-20,38,21.7-16.72,9.55-38-21.7Zm0,43.39-38-21.7,17.22-9.84,38,21.7ZM516,175.5l38,21.71v44.39l-38-21.71Zm42,66.11V197.21l38-21.71v44.39Z"/><g class="cls-2"><path class="cls-3" d="M599,418.16l-3,1.71v45.55a2,2,0,0,0,4,0v-49A2,2,0,0,1,599,418.16Z"/><path class="cls-3" d="M513,418.16a2,2,0,0,1-1-1.74v49a2,2,0,0,0,4,0V419.87Z"/></g><path class="cls-4" d="M598,365.43a2,2,0,0,0-2,2v47.84L558,437V391.39a2,2,0,0,0-4,0V437l-38-21.71V367.43a2,2,0,0,0-4,0v49a2,2,0,0,0,1,1.74l42,24a2,2,0,0,0,2,0l42-24a2,2,0,0,0,1-1.74v-49A2,2,0,0,0,598,365.43Z"/><path class="cls-3" d="M599,316.65l-42-24a2,2,0,0,0-2,0l-42,24a2,2,0,0,0-1,1.74v49a2,2,0,0,0,1,1.74l42,24a2,2,0,0,0,2,0l42-24a2,2,0,0,0,1-1.74v-49A2,2,0,0,0,599,316.65Zm-43-20,38,21.7-16.72,9.55-38-21.7Zm0,43.39-38-21.7,17.22-9.84,38,21.7Zm-40-18.25,38,21.71v44.39l-38-21.71Zm42,66.11V343.55l38-21.71v44.39Z"/><path class="cls-4" d="M598,511.43a2,2,0,0,0-2,2v47.84L558,583V537.39a2,2,0,0,0-4,0V583l-38-21.71V513.43a2,2,0,1,0-4,0v49a2,2,0,0,0,1,1.74l42,24a2,2,0,0,0,2,0l42-24a2,2,0,0,0,1-1.74v-49A2,2,0,0,0,598,511.43Z"/><path class="cls-3" d="M599,462.65l-42-24a2,2,0,0,0-2,0l-42,24a2,2,0,0,0-1,1.74v49a2,2,0,0,0,1,1.74l42,24a2,2,0,0,0,2,0l42-24a2,2,0,0,0,1-1.74v-49A2,2,0,0,0,599,462.65Zm-43-20,38,21.7-16.72,9.55-38-21.7Zm0,43.39-38-21.7,17.22-9.84,38,21.7Zm-40-18.25,38,21.71v44.39l-38-21.71Zm42,66.11V489.55l38-21.71v44.39Z"/><path class="cls-5" d="M599,564.16l-3,1.71v44.34l-38,21.71V587.59l-1,.58a2,2,0,0,1-2,0l-1-.58v44.34l-38-21.71V565.87l-3-1.71a2,2,0,0,1-1-1.74v49a2,2,0,0,0,1,1.74l42,24a2,2,0,0,0,2,0l42-24a2,2,0,0,0,1-1.74v-49A2,2,0,0,1,599,564.16Z"/><g class="cls-2"><path class="cls-3" d="M727,179.4l-3,1.71v45.55a2,2,0,0,0,4,0v-49A2,2,0,0,1,727,179.4Z"/><path class="cls-3" d="M641,179.4a2,2,0,0,1-1-1.74v49a2,2,0,0,0,4,0V181.11Z"/></g><path class="cls-4" d="M726,126.66a2,2,0,0,0-2,2V176.5l-38,21.71V152.62a2,2,0,1,0-4,0v45.59L644,176.5V128.66a2,2,0,1,0-4,0v49a2,2,0,0,0,1,1.74l42,24a2,2,0,0,0,2,0l42-24a2,2,0,0,0,1-1.74v-49A2,2,0,0,0,726,126.66Z"/><path class="cls-3" d="M727,77.89l-42-24a2,2,0,0,0-2,0l-42,24a2,2,0,0,0-1,1.74v49a2,2,0,0,0,1,1.74l42,24a2,2,0,0,0,2,0l42-24a2,2,0,0,0,1-1.74v-49A2,2,0,0,0,727,77.89Zm-43-20,38,21.7-16.72,9.55-38-21.7Zm0,43.39-38-21.7,17.22-9.84,38,21.7ZM644,83.07l38,21.71v44.39l-38-21.71Zm42,66.11V104.78l38-21.71v44.39Z"/><g class="cls-2"><path class="cls-3" d="M727,325.24l-3,1.71V372.5a2,2,0,0,0,4,0v-49A2,2,0,0,1,727,325.24Z"/><path class="cls-3" d="M641,325.24a2,2,0,0,1-1-1.74v49a2,2,0,0,0,4,0V326.95Z"/></g><path class="cls-4" d="M726,272.5a2,2,0,0,0-2,2v47.84l-38,21.71V298.46a2,2,0,0,0-4,0v45.59l-38-21.71V274.5a2,2,0,1,0-4,0v49a2,2,0,0,0,1,1.74l42,24a2,2,0,0,0,2,0l42-24a2,2,0,0,0,1-1.74v-49A2,2,0,0,0,726,272.5Z"/><path class="cls-3" d="M727,223.72l-42-24a2,2,0,0,0-2,0l-42,24a2,2,0,0,0-1,1.74v49a2,2,0,0,0,1,1.74l42,24a2,2,0,0,0,2,0l42-24a2,2,0,0,0,1-1.74v-49A2,2,0,0,0,727,223.72Zm-43-20,38,21.7L705.25,235l-38-21.7Zm0,43.39-38-21.7,17.22-9.84,38,21.7Zm-40-18.25,38,21.71V295L644,273.3ZM686,295V250.62l38-21.71V273.3Z"/><g class="cls-2"><path class="cls-3" d="M727,471.57l-3,1.71v45.55a2,2,0,0,0,4,0v-49A2,2,0,0,1,727,471.57Z"/><path class="cls-3" d="M641,471.57a2,2,0,0,1-1-1.74v49a2,2,0,0,0,4,0V473.28Z"/></g><path class="cls-4" d="M726,418.84a2,2,0,0,0-2,2v47.84l-38,21.71V444.79a2,2,0,0,0-4,0v45.59l-38-21.71V420.84a2,2,0,0,0-4,0v49a2,2,0,0,0,1,1.74l42,24a2,2,0,0,0,2,0l42-24a2,2,0,0,0,1-1.74v-49A2,2,0,0,0,726,418.84Z"/><path class="cls-3" d="M727,370.06l-42-24a2,2,0,0,0-2,0l-42,24a2,2,0,0,0-1,1.74v49a2,2,0,0,0,1,1.74l42,24a2,2,0,0,0,2,0l42-24a2,2,0,0,0,1-1.74v-49A2,2,0,0,0,727,370.06Zm-43-20,38,21.7-16.72,9.55-38-21.7Zm0,43.39-38-21.7L663.25,362l38,21.7Zm-40-18.25L682,397v44.39l-38-21.71Zm42,66.11V397l38-21.71v44.39Z"/><path class="cls-4" d="M726,564.84a2,2,0,0,0-2,2v47.84l-38,21.71V590.79a2,2,0,0,0-4,0v45.59l-38-21.71V566.84a2,2,0,0,0-4,0v49a2,2,0,0,0,1,1.74l42,24a2,2,0,0,0,2,0l42-24a2,2,0,0,0,1-1.74v-49A2,2,0,0,0,726,564.84Z"/><path class="cls-3" d="M727,516.06l-42-24a2,2,0,0,0-2,0l-42,24a2,2,0,0,0-1,1.74v49a2,2,0,0,0,1,1.74l42,24a2,2,0,0,0,2,0l42-24a2,2,0,0,0,1-1.74v-49A2,2,0,0,0,727,516.06Zm-43-20,38,21.7-16.72,9.55-38-21.7Zm0,43.39-38-21.7L663.25,508l38,21.7Zm-40-18.25L682,543v44.39l-38-21.71Zm42,66.11V543l38-21.71v44.39Z"/><path class="cls-5" d="M727,617.57l-3,1.71v44.34l-38,21.71V641l-1,.58a2,2,0,0,1-2,0l-1-.58v44.34l-38-21.71V619.28l-3-1.71a2,2,0,0,1-1-1.74v49a2,2,0,0,0,1,1.74l42,24a2,2,0,0,0,2,0l42-24a2,2,0,0,0,1-1.74v-49A2,2,0,0,1,727,617.57Z"/><g class="cls-2"><path class="cls-3" d="M854.74,126l-3,1.71v45.55a2,2,0,0,0,4,0v-49A2,2,0,0,1,854.74,126Z"/><path class="cls-3" d="M768.76,126a2,2,0,0,1-1-1.74v49a2,2,0,0,0,4,0V127.7Z"/></g><path class="cls-4" d="M853.75,73.26a2,2,0,0,0-2,2v47.84l-38,21.71V99.21a2,2,0,1,0-4,0v45.59l-38-21.71V75.26a2,2,0,0,0-4,0v49a2,2,0,0,0,1,1.74l42,24a2,2,0,0,0,2,0l42-24a2,2,0,0,0,1-1.74v-49A2,2,0,0,0,853.75,73.26Z"/><path class="cls-3" d="M854.74,24.48l-42-24a2,2,0,0,0-2,0l-42,24a2,2,0,0,0-1,1.74v49a2,2,0,0,0,1,1.74l42,24a2,2,0,0,0,2,0l42-24a2,2,0,0,0,1-1.74v-49A2,2,0,0,0,854.74,24.48Zm-43-20,38,21.7L833,35.77l-38-21.7Zm0,43.39-38-21.7L791,16.37l38,21.7Zm-40-18.25,38,21.71V95.77l-38-21.71Zm42,66.11V51.37l38-21.71V74.05Z"/><g class="cls-2"><path class="cls-3" d="M854.74,271.83l-3,1.71v45.55a2,2,0,0,0,4,0v-49A2,2,0,0,1,854.74,271.83Z"/><path class="cls-3" d="M768.76,271.83a2,2,0,0,1-1-1.74v49a2,2,0,0,0,4,0V273.54Z"/></g><path class="cls-4" d="M853.75,219.09a2,2,0,0,0-2,2v47.84l-38,21.71V245.05a2,2,0,0,0-4,0v45.59l-38-21.71V221.09a2,2,0,1,0-4,0v49a2,2,0,0,0,1,1.74l42,24a2,2,0,0,0,2,0l42-24a2,2,0,0,0,1-1.74v-49A2,2,0,0,0,853.75,219.09Z"/><path class="cls-3" d="M854.74,170.32l-42-24a2,2,0,0,0-2,0l-42,24a2,2,0,0,0-1,1.74v49a2,2,0,0,0,1,1.74l42,24a2,2,0,0,0,2,0l42-24a2,2,0,0,0,1-1.74v-49A2,2,0,0,0,854.74,170.32Zm-43-20,38,21.7L833,181.61l-38-21.7Zm0,43.39-38-21.7L791,162.21l38,21.7Zm-40-18.25,38,21.71v44.39l-38-21.71Zm42,66.11V197.21l38-21.71v44.39Z"/><g class="cls-2"><path class="cls-3" d="M854.74,418.16l-3,1.71v45.55a2,2,0,0,0,4,0v-49A2,2,0,0,1,854.74,418.16Z"/><path class="cls-3" d="M768.76,418.16a2,2,0,0,1-1-1.74v49a2,2,0,0,0,4,0V419.87Z"/></g><path class="cls-4" d="M853.75,365.43a2,2,0,0,0-2,2v47.84l-38,21.71V391.39a2,2,0,1,0-4,0V437l-38-21.71V367.43a2,2,0,0,0-4,0v49a2,2,0,0,0,1,1.74l42,24a2,2,0,0,0,2,0l42-24a2,2,0,0,0,1-1.74v-49A2,2,0,0,0,853.75,365.43Z"/><path class="cls-3" d="M854.74,316.65l-42-24a2,2,0,0,0-2,0l-42,24a2,2,0,0,0-1,1.74v49a2,2,0,0,0,1,1.74l42,24a2,2,0,0,0,2,0l42-24a2,2,0,0,0,1-1.74v-49A2,2,0,0,0,854.74,316.65Zm-43-20,38,21.7L833,327.94l-38-21.7Zm0,43.39-38-21.7L791,308.55l38,21.7Zm-40-18.25,38,21.71v44.39l-38-21.71Zm42,66.11V343.55l38-21.71v44.39Z"/><path class="cls-4" d="M853.75,511.43a2,2,0,0,0-2,2v47.84l-38,21.71V537.39a2,2,0,0,0-4,0V583l-38-21.71V513.43a2,2,0,0,0-4,0v49a2,2,0,0,0,1,1.74l42,24a2,2,0,0,0,2,0l42-24a2,2,0,0,0,1-1.74v-49A2,2,0,0,0,853.75,511.43Z"/><path class="cls-3" d="M854.74,462.65l-42-24a2,2,0,0,0-2,0l-42,24a2,2,0,0,0-1,1.74v49a2,2,0,0,0,1,1.74l42,24a2,2,0,0,0,2,0l42-24a2,2,0,0,0,1-1.74v-49A2,2,0,0,0,854.74,462.65Zm-43-20,38,21.7L833,473.94l-38-21.7Zm0,43.39-38-21.7L791,454.55l38,21.7Zm-40-18.25,38,21.71v44.39l-38-21.71Zm42,66.11V489.55l38-21.71v44.39Z"/><path class="cls-5" d="M854.74,564.16l-3,1.71v44.34l-38,21.71V587.59l-1,.58a2,2,0,0,1-2,0l-1-.58v44.34l-38-21.71V565.87l-3-1.71a2,2,0,0,1-1-1.74v49a2,2,0,0,0,1,1.74l42,24a2,2,0,0,0,2,0l42-24a2,2,0,0,0,1-1.74v-49A2,2,0,0,1,854.74,564.16Z"/><g class="cls-2"><path class="cls-3" d="M1111,126l-3,1.71v45.55a2,2,0,1,0,4,0v-49A2,2,0,0,1,1111,126Z"/><path class="cls-3" d="M1025,126a2,2,0,0,1-1-1.74v49a2,2,0,1,0,4,0V127.7Z"/></g><path class="cls-4" d="M1110,73.26a2,2,0,0,0-2,2v47.84l-38,21.71V99.21a2,2,0,0,0-4,0v45.59l-38-21.71V75.26a2,2,0,1,0-4,0v49a2,2,0,0,0,1,1.74l42,24a2,2,0,0,0,2,0l42-24a2,2,0,0,0,1-1.74v-49A2,2,0,0,0,1110,73.26Z"/><path class="cls-3" d="M1111,24.48l-42-24a2,2,0,0,0-2,0l-42,24a2,2,0,0,0-1,1.74v49a2,2,0,0,0,1,1.74l42,24a2,2,0,0,0,2,0l42-24a2,2,0,0,0,1-1.74v-49A2,2,0,0,0,1111,24.48Zm-43-20,38,21.7-16.72,9.55-38-21.7Zm0,43.39-38-21.7,17.22-9.84,38,21.7Zm-40-18.25,38,21.71V95.77l-38-21.71Zm42,66.11V51.37l38-21.71V74.05Z"/><g class="cls-2"><path class="cls-3" d="M1111,271.83l-3,1.71v45.55a2,2,0,1,0,4,0v-49A2,2,0,0,1,1111,271.83Z"/><path class="cls-3" d="M1025,271.83a2,2,0,0,1-1-1.74v49a2,2,0,1,0,4,0V273.54Z"/></g><path class="cls-4" d="M1110,219.09a2,2,0,0,0-2,2v47.84l-38,21.71V245.05a2,2,0,1,0-4,0v45.59l-38-21.71V221.09a2,2,0,0,0-4,0v49a2,2,0,0,0,1,1.74l42,24a2,2,0,0,0,2,0l42-24a2,2,0,0,0,1-1.74v-49A2,2,0,0,0,1110,219.09Z"/><path class="cls-3" d="M1111,170.32l-42-24a2,2,0,0,0-2,0l-42,24a2,2,0,0,0-1,1.74v49a2,2,0,0,0,1,1.74l42,24a2,2,0,0,0,2,0l42-24a2,2,0,0,0,1-1.74v-49A2,2,0,0,0,1111,170.32Zm-43-20,38,21.7-16.72,9.55-38-21.7Zm0,43.39-38-21.7,17.22-9.84,38,21.7Zm-40-18.25,38,21.71v44.39l-38-21.71Zm42,66.11V197.21l38-21.71v44.39Z"/><g class="cls-2"><path class="cls-3" d="M1111,418.16l-3,1.71v45.55a2,2,0,0,0,4,0v-49A2,2,0,0,1,1111,418.16Z"/><path class="cls-3" d="M1025,418.16a2,2,0,0,1-1-1.74v49a2,2,0,0,0,4,0V419.87Z"/></g><path class="cls-4" d="M1110,365.43a2,2,0,0,0-2,2v47.84L1070,437V391.39a2,2,0,0,0-4,0V437l-38-21.71V367.43a2,2,0,1,0-4,0v49a2,2,0,0,0,1,1.74l42,24a2,2,0,0,0,2,0l42-24a2,2,0,0,0,1-1.74v-49A2,2,0,0,0,1110,365.43Z"/><path class="cls-3" d="M1111,316.65l-42-24a2,2,0,0,0-2,0l-42,24a2,2,0,0,0-1,1.74v49a2,2,0,0,0,1,1.74l42,24a2,2,0,0,0,2,0l42-24a2,2,0,0,0,1-1.74v-49A2,2,0,0,0,1111,316.65Zm-43-20,38,21.7-16.72,9.55-38-21.7Zm0,43.39-38-21.7,17.22-9.84,38,21.7Zm-40-18.25,38,21.71v44.39l-38-21.71Zm42,66.11V343.55l38-21.71v44.39Z"/><path class="cls-4" d="M1110,511.43a2,2,0,0,0-2,2v47.84L1070,583V537.39a2,2,0,0,0-4,0V583l-38-21.71V513.43a2,2,0,1,0-4,0v49a2,2,0,0,0,1,1.74l42,24a2,2,0,0,0,2,0l42-24a2,2,0,0,0,1-1.74v-49A2,2,0,0,0,1110,511.43Z"/><path class="cls-3" d="M1111,462.65l-42-24a2,2,0,0,0-2,0l-42,24a2,2,0,0,0-1,1.74v49a2,2,0,0,0,1,1.74l42,24a2,2,0,0,0,2,0l42-24a2,2,0,0,0,1-1.74v-49A2,2,0,0,0,1111,462.65Zm-43-20,38,21.7-16.72,9.55-38-21.7Zm0,43.39-38-21.7,17.22-9.84,38,21.7Zm-40-18.25,38,21.71v44.39l-38-21.71Zm42,66.11V489.55l38-21.71v44.39Z"/><path class="cls-5" d="M1111,564.16l-3,1.71v44.34l-38,21.71V587.59l-1,.58a2,2,0,0,1-2,0l-1-.58v44.34l-38-21.71V565.87l-3-1.71a2,2,0,0,1-1-1.74v49a2,2,0,0,0,1,1.74l42,24a2,2,0,0,0,2,0l42-24a2,2,0,0,0,1-1.74v-49A2,2,0,0,1,1111,564.16Z"/><g class="cls-2"><path class="cls-3" d="M982.74,179.4l-3,1.71v45.55a2,2,0,1,0,4,0v-49A2,2,0,0,1,982.74,179.4Z"/><path class="cls-3" d="M896.76,179.4a2,2,0,0,1-1-1.74v49a2,2,0,1,0,4,0V181.11Z"/></g><path class="cls-4" d="M981.75,126.66a2,2,0,0,0-2,2V176.5l-38,21.71V152.62a2,2,0,1,0-4,0v45.59l-38-21.71V128.66a2,2,0,0,0-4,0v49a2,2,0,0,0,1,1.74l42,24a2,2,0,0,0,2,0l42-24a2,2,0,0,0,1-1.74v-49A2,2,0,0,0,981.75,126.66Z"/><path class="cls-3" d="M982.74,77.89l-42-24a2,2,0,0,0-2,0l-42,24a2,2,0,0,0-1,1.74v49a2,2,0,0,0,1,1.74l42,24a2,2,0,0,0,2,0l42-24a2,2,0,0,0,1-1.74v-49A2,2,0,0,0,982.74,77.89Zm-43-20,38,21.7L961,89.18l-38-21.7Zm0,43.39-38-21.7L919,69.78l38,21.7Zm-40-18.25,38,21.71v44.39l-38-21.71Zm42,66.11V104.78l38-21.71v44.39Z"/><g class="cls-2"><path class="cls-3" d="M982.74,325.24l-3,1.71V372.5a2,2,0,1,0,4,0v-49A2,2,0,0,1,982.74,325.24Z"/><path class="cls-3" d="M896.76,325.24a2,2,0,0,1-1-1.74v49a2,2,0,1,0,4,0V326.95Z"/></g><path class="cls-4" d="M981.75,272.5a2,2,0,0,0-2,2v47.84l-38,21.71V298.46a2,2,0,0,0-4,0v45.59l-38-21.71V274.5a2,2,0,0,0-4,0v49a2,2,0,0,0,1,1.74l42,24a2,2,0,0,0,2,0l42-24a2,2,0,0,0,1-1.74v-49A2,2,0,0,0,981.75,272.5Z"/><path class="cls-3" d="M982.74,223.72l-42-24a2,2,0,0,0-2,0l-42,24a2,2,0,0,0-1,1.74v49a2,2,0,0,0,1,1.74l42,24a2,2,0,0,0,2,0l42-24a2,2,0,0,0,1-1.74v-49A2,2,0,0,0,982.74,223.72Zm-43-20,38,21.7L961,235l-38-21.7Zm0,43.39-38-21.7L919,215.62l38,21.7Zm-40-18.25,38,21.71V295l-38-21.71Zm42,66.11V250.62l38-21.71V273.3Z"/><g class="cls-2"><path class="cls-3" d="M982.74,471.57l-3,1.71v45.55a2,2,0,1,0,4,0v-49A2,2,0,0,1,982.74,471.57Z"/><path class="cls-3" d="M896.76,471.57a2,2,0,0,1-1-1.74v49a2,2,0,1,0,4,0V473.28Z"/></g><path class="cls-4" d="M981.75,418.84a2,2,0,0,0-2,2v47.84l-38,21.71V444.79a2,2,0,1,0-4,0v45.59l-38-21.71V420.84a2,2,0,1,0-4,0v49a2,2,0,0,0,1,1.74l42,24a2,2,0,0,0,2,0l42-24a2,2,0,0,0,1-1.74v-49A2,2,0,0,0,981.75,418.84Z"/><path class="cls-3" d="M982.74,370.06l-42-24a2,2,0,0,0-2,0l-42,24a2,2,0,0,0-1,1.74v49a2,2,0,0,0,1,1.74l42,24a2,2,0,0,0,2,0l42-24a2,2,0,0,0,1-1.74v-49A2,2,0,0,0,982.74,370.06Zm-43-20,38,21.7L961,381.35l-38-21.7Zm0,43.39-38-21.7L919,362l38,21.7Zm-40-18.25,38,21.71v44.39l-38-21.71Zm42,66.11V397l38-21.71v44.39Z"/><path class="cls-4" d="M981.75,564.84a2,2,0,0,0-2,2v47.84l-38,21.71V590.79a2,2,0,1,0-4,0v45.59l-38-21.71V566.84a2,2,0,0,0-4,0v49a2,2,0,0,0,1,1.74l42,24a2,2,0,0,0,2,0l42-24a2,2,0,0,0,1-1.74v-49A2,2,0,0,0,981.75,564.84Z"/><path class="cls-3" d="M982.74,516.06l-42-24a2,2,0,0,0-2,0l-42,24a2,2,0,0,0-1,1.74v49a2,2,0,0,0,1,1.74l42,24a2,2,0,0,0,2,0l42-24a2,2,0,0,0,1-1.74v-49A2,2,0,0,0,982.74,516.06Zm-43-20,38,21.7L961,527.35l-38-21.7Zm0,43.39-38-21.7L919,508l38,21.7Zm-40-18.25,38,21.71v44.39l-38-21.71Zm42,66.11V543l38-21.71v44.39Z"/><path class="cls-5" d="M982.74,617.57l-3,1.71v44.34l-38,21.71V641l-1,.58a2,2,0,0,1-2,0l-1-.58v44.34l-38-21.71V619.28l-3-1.71a2,2,0,0,1-1-1.74v49a2,2,0,0,0,1,1.74l42,24a2,2,0,0,0,2,0l42-24a2,2,0,0,0,1-1.74v-49A2,2,0,0,1,982.74,617.57Z"/></g></svg>